# xmcd
#
# Track frame offsets:
#	150
#	18232
#	28587
#	52332
#	65810
#	72911
#	88339
#	103233
#	129945
#	148547
#
# Disc length: 2233 seconds
#
# Revision: 0
# Processed by: cddbd v1.5.2PL0 Copyright (c) Steve Scherf et al.
# Submitted via: VUPlayer 2.49
#
DISCID=9508b70a
DTITLE=Tweed Funk - Bringin It
DYEAR=2011
DGENRE=Blues Funk
TTITLE0=Blues Is The Truth
TTITLE1=I Know
TTITLE2=Super Mad Woman
TTITLE3=B-Line
TTITLE4=Brainfreeze
TTITLE5=Testify
TTITLE6=My Baby's Alright
TTITLE7=Thank You
TTITLE8=Salsa Blues
TTITLE9=Black Coffee
EXTD=
EXTT0=
EXTT1=
EXTT2=
EXTT3=
EXTT4=
EXTT5=
EXTT6=
EXTT7=
EXTT8=
EXTT9=
PLAYORDER=
